<?xml version="1.0" encoding="UTF-8" standalone="no"?>

<svg xmlns="http://www.w3.org/2000/svg" version="1.1" width="64" height="64" viewBox="0 0 64 64" xml:space="preserve">
    <g>
        <path
            transform="matrix(1.08867,0,0,1.08867,22.995407,4.3957573)"
            d="m 35.79661,25.355932 a 27.525423,27.525423 0 1 1 -55.050846,0 27.525423,27.525423 0 1 1 55.050846,0 z"
            style="fill:#ffffff;fill-opacity:1;stroke:none" />
        <path
            d="M 32.001,3.5599998 C 16.317,3.5599998 3.56,16.317 3.56,32 3.56,47.683 16.317,60.44 32.002,60.44 47.683,60.44 60.44,47.683 60.44,32 60.44,16.317 47.683,3.5599998 32.001,3.5599998 z M 24.227,26.593 24.284,26.53 c 0.232,-0.168 0.345,-0.432 0.303,-0.708 -0.573,-3.446 -0.197,-4.883 -0.07,-5.244 1.001,-3.072 4.143,-4.493 4.76,-4.745 0.131,-0.052 0.374,-0.125 0.62,-0.163 l 0.073,-0.017 0.505,-0.027 0.004,0.031 0.117,-0.011 C 30.7,15.635 30.8,15.621 30.925,15.595 l 0.111,-0.024 c 0.099,10e-4 1.322,0.156 3.139,0.713 l 1.263,0.435 c 2.31,0.682 3.372,1.951 3.569,2.207 1.85,2.095 1.354,5.259 0.896,6.958 -0.052,0.2 -0.021,0.406 0.092,0.577 L 40.1,26.59 c 0.134,0.182 0.254,0.884 -0.148,2.376 -0.076,0.453 -0.243,0.821 -0.492,1.069 -0.092,0.101 -0.156,0.229 -0.179,0.374 -0.625,3.665 -3.909,7.764 -7.37,7.764 -2.937,0 -6.289,-3.771 -6.892,-7.761 -0.023,-0.149 -0.085,-0.28 -0.188,-0.393 C 24.58,29.759 24.42,29.384 24.323,28.829 24.029,27.785 24,26.944 24.227,26.593 z m -6.593,15.892 c 0.127,-0.161 0.837,-0.993 2.273,-1.541 1.263,-0.388 4.384,-1.425 6.09,-2.661 0.08,-0.044 0.159,-0.127 0.224,-0.194 0.158,-0.17 0.399,-0.429 0.685,-0.694 l 0.159,-0.151 0.162,0.152 c 1.503,1.417 3.166,2.194 4.683,2.194 1.594,0 3.237,-0.69 4.756,-1.996 l 0.119,-0.103 0.322,0.157 c 0.288,0.264 0.786,0.626 1.018,0.736 l 0.296,0.145 -0.031,0.032 0.132,0.08 c 0.28,0.169 0.585,0.333 0.943,0.51 0.361,0.159 0.663,0.277 0.976,0.379 0.264,0.086 1.668,0.558 3.265,1.296 l 0.305,0.092 c 1.562,0.598 2.256,1.429 2.325,1.516 1.854,2.748 2.565,7.876 2.829,10.733 -4.843,3.933 -10.935,6.098 -17.162,6.098 -6.23,0 -12.323,-2.165 -17.164,-6.099 0.259,-2.85 0.964,-7.962 2.795,-10.681 z"
            style="fill:#f0b017;fill-opacity:1;stroke:none" />
    </g>
</svg>